<?xml version="1.0" standalone="no"?>
<!DOCTYPE svg PUBLIC "-//W3C//DTD SVG 20010904//EN"
 "http://www.w3.org/TR/2001/REC-SVG-20010904/DTD/svg10.dtd">
<svg version="1.0" xmlns="http://www.w3.org/2000/svg"
 width="310.000000pt" height="310.000000pt" viewBox="0 0 310.000000 310.000000"
 preserveAspectRatio="xMidYMid meet">

<g transform="translate(0.000000,310.000000) scale(0.100000,-0.100000)"
fill="#d1d5db" stroke="none">
<path d="M1157 3085 c-4 -8 -23 -23 -44 -34 -108 -55 -169 -205 -134 -328 16
-56 78 -138 128 -170 56 -36 119 -47 209 -37 55 5 73 13 114 45 27 22 65 63
85 91 34 51 35 56 35 147 0 85 -3 98 -29 145 -17 28 -49 65 -72 81 -23 17 -53
40 -66 53 -21 20 -34 22 -122 22 -77 0 -100 -3 -104 -15z"/>
<path d="M249 2773 c-69 -40 -103 -99 -103 -179 0 -85 35 -136 121 -180 54
-28 73 -32 179 -38 142 -8 325 -33 338 -46 6 -6 5 -28 -2 -57 -22 -90 -51
-278 -58 -370 -6 -83 -5 -93 11 -99 10 -4 25 -2 34 4 9 6 53 32 97 56 93 52
102 69 73 132 -10 24 -19 50 -19 59 0 9 -10 35 -22 58 -19 35 -23 58 -23 142
l0 100 48 69 c60 88 64 139 16 223 -49 86 -84 103 -241 119 -73 7 -157 18
-187 24 -29 5 -90 10 -135 10 -69 -1 -88 -4 -127 -27z"/>
<path d="M1065 2410 c-11 -4 -37 -24 -57 -43 -36 -33 -38 -38 -38 -96 0 -40 8
-82 24 -123 13 -35 36 -97 51 -138 15 -41 35 -93 45 -115 9 -22 21 -55 25 -73
22 -103 106 -222 155 -222 11 0 43 -9 72 -20 29 -11 80 -25 113 -31 32 -6 71
-17 85 -24 14 -7 44 -16 65 -20 22 -4 69 -16 105 -27 l66 -20 51 22 c102 44
139 142 83 219 -27 36 -128 91 -170 91 -14 0 -56 12 -95 25 -38 14 -82 25 -96
25 -14 0 -50 12 -80 28 -57 29 -61 36 -106 172 -8 25 -23 63 -34 86 -10 23
-19 47 -20 55 0 8 -15 50 -33 94 -26 64 -41 87 -75 113 -44 33 -92 41 -136 22z"/>
<path d="M295 2314 c-10 -10 -15 -34 -15 -69 l0 -53 136 -164 c130 -156 172
-194 194 -172 5 5 14 59 19 121 6 61 18 149 28 197 17 84 17 86 -2 106 -22 21
-98 34 -257 44 -70 4 -91 2 -103 -10z"/>
<path d="M251 2011 c-6 -11 -11 -48 -11 -83 0 -35 -9 -123 -20 -197 -21 -142
-19 -182 12 -242 43 -84 122 -122 253 -123 l90 -1 2 155 2 155 -147 174 c-81
96 -152 176 -159 178 -6 3 -16 -5 -22 -16z"/>
<path d="M904 1769 c-43 -23 -86 -46 -94 -53 -8 -6 -32 -20 -52 -30 -77 -39
-81 -49 -80 -200 1 -112 5 -144 21 -183 11 -26 25 -66 30 -88 10 -40 42 -142
63 -200 6 -16 19 -64 30 -105 18 -67 19 -83 7 -150 -6 -41 -20 -97 -30 -125
-9 -27 -20 -68 -24 -90 -3 -22 -15 -67 -26 -100 -70 -217 -21 -355 126 -355
25 0 60 6 78 13 49 21 106 96 117 157 5 28 14 59 20 70 6 10 17 53 25 94 7 41
19 84 25 96 6 11 15 46 21 77 6 32 19 84 30 115 26 79 24 156 -6 244 -25 71
-25 104 0 104 6 0 20 -9 30 -20 10 -11 22 -20 27 -20 6 0 31 -15 56 -32 26
-18 49 -34 51 -35 7 -4 41 -189 51 -276 17 -147 65 -208 188 -242 32 -9 27
-34 -10 -51 -18 -9 -55 -28 -83 -44 -27 -16 -68 -38 -90 -50 -129 -68 -175
-100 -196 -134 -23 -37 -24 -74 -4 -100 8 -11 15 -28 15 -38 0 -16 9 -18 65
-18 52 0 65 3 65 15 0 9 19 25 43 36 23 10 65 32 92 48 28 16 64 36 80 45 17
9 53 29 80 45 28 17 68 40 90 51 22 11 63 34 90 50 28 17 61 36 75 42 14 7 41
22 60 34 39 25 188 60 293 69 103 10 139 52 180 210 29 112 39 150 54 195 8
25 21 70 28 100 25 105 62 200 96 242 19 24 50 65 69 91 19 26 55 74 80 106
25 32 59 77 75 100 17 23 49 67 73 98 34 45 42 63 42 99 0 34 -6 48 -27 68
-58 54 -117 37 -186 -55 -37 -48 -77 -102 -242 -321 -115 -154 -126 -176 -179
-378 -8 -30 -26 -93 -40 -140 -13 -47 -32 -110 -40 -140 -9 -30 -22 -59 -28
-66 -7 -6 -54 -16 -104 -22 -123 -16 -225 -55 -326 -125 -30 -20 -41 3 -27 58
9 37 9 76 0 179 -13 135 -55 375 -70 404 -19 35 -85 85 -266 201 -73 47 -125
93 -131 117 -4 17 -29 36 -80 65 -84 46 -112 80 -166 203 -19 44 -39 81 -45
83 -5 2 -46 -15 -89 -38z"/>
</g>
</svg>
